<?xml version="1.0" standalone="no"?>
<!DOCTYPE svg PUBLIC "-//W3C//DTD SVG 20010904//EN"
 "http://www.w3.org/TR/2001/REC-SVG-20010904/DTD/svg10.dtd">
<svg version="1.0" xmlns="http://www.w3.org/2000/svg"
 width="1080.000000pt" height="1080.000000pt" viewBox="0 0 1080.000000 1080.000000"
 preserveAspectRatio="xMidYMid meet">

<g transform="translate(0.000000,1080.000000) scale(0.100000,-0.100000)"
fill="#000000" stroke="none">
<path d="M0 8925 l0 -1875 47 3 48 2 0 -40 c0 -51 11 -68 40 -63 20 4 24 0 29
-34 8 -46 33 -49 54 -6 9 19 17 25 33 21 17 -5 20 -12 17 -35 -3 -19 0 -32 9
-35 7 -3 13 -15 13 -27 0 -12 7 -31 15 -42 14 -19 14 -19 30 3 8 12 30 24 48
28 17 4 51 19 74 33 35 22 44 34 52 72 8 35 7 50 -5 68 -16 24 -29 28 -39 12
-3 -5 -13 -10 -22 -10 -9 0 -26 -9 -38 -20 -12 -11 -25 -16 -33 -11 -15 9 -5
41 13 41 13 0 25 30 25 65 0 12 18 41 41 65 30 32 48 43 70 43 42 0 46 -10 16
-36 -20 -16 -27 -32 -27 -58 0 -19 -5 -40 -12 -47 -9 -9 -7 -13 8 -17 92 -28
100 -78 37 -214 -27 -57 -30 -90 -18 -206 8 -77 2 -90 -44 -97 -49 -6 -33 -92
20 -110 8 -3 13 -23 13 -59 1 -47 -2 -54 -18 -54 -13 0 -22 9 -27 26 -3 14
-32 51 -63 81 -31 31 -56 61 -56 67 0 6 -14 17 -30 26 -36 19 -37 23 -5 35 29
11 34 48 13 92 -18 37 -35 41 -168 43 -63 0 -125 4 -138 9 l-22 7 0 -1895 c0
-1043 2 -1896 5 -1896 2 0 27 20 55 45 28 25 55 45 60 45 4 0 22 12 38 27 49
47 189 143 207 143 6 0 22 11 35 23 14 13 39 27 55 31 17 4 59 20 95 36 53 23
89 31 182 38 110 8 118 10 157 41 23 18 50 50 61 70 19 36 153 181 168 181 4
0 22 13 40 30 18 16 38 30 43 30 6 0 27 13 47 29 21 17 56 32 82 36 25 4 67
19 93 33 52 26 58 27 287 42 80 5 181 14 225 20 125 17 404 14 441 -5 17 -8
74 -19 127 -25 73 -7 107 -16 135 -33 20 -13 55 -27 77 -31 21 -4 52 -16 67
-27 15 -11 42 -25 60 -31 18 -6 42 -21 53 -33 11 -12 33 -29 48 -39 70 -43
180 -154 208 -208 10 -20 23 -40 29 -43 14 -9 50 -81 50 -101 0 -31 43 -104
64 -109 12 -3 49 -9 84 -14 36 -6 76 -20 94 -33 21 -15 54 -25 96 -29 42 -4
74 -14 94 -29 18 -13 55 -25 94 -31 102 -14 195 -65 292 -159 62 -59 90 -80
110 -80 35 0 43 -6 84 -61 38 -49 41 -64 41 -254 1 -86 -1 -92 -35 -148 -46
-73 -88 -130 -105 -140 -8 -5 -29 -23 -47 -42 -19 -18 -48 -40 -65 -49 -17 -9
-31 -20 -31 -25 0 -5 -13 -14 -30 -21 -16 -7 -42 -23 -57 -35 -14 -13 -38 -27
-52 -30 -14 -3 -42 -17 -61 -29 -19 -13 -57 -29 -85 -36 -27 -7 -61 -21 -75
-31 -14 -9 -48 -20 -75 -24 -28 -4 -70 -17 -95 -30 -25 -12 -77 -28 -115 -35
-39 -7 -77 -18 -85 -25 -20 -17 -77 -35 -109 -35 -29 0 -89 -16 -108 -28 -7
-4 -19 -33 -27 -65 -16 -62 -62 -115 -133 -153 -117 -64 -112 -61 -150 -93
-13 -10 -44 -21 -69 -25 -25 -3 -58 -15 -74 -26 -26 -19 -73 -32 -162 -45 -21
-3 -38 -10 -38 -14 0 -20 -76 -32 -235 -37 -240 -8 -487 8 -545 35 -25 11 -61
21 -80 21 -44 0 -135 24 -163 43 -12 8 -43 18 -67 22 -25 4 -61 20 -81 36 -20
16 -42 29 -49 29 -11 0 -63 40 -115 88 -11 11 -50 45 -87 76 -86 73 -155 157
-168 205 -9 35 -15 40 -58 51 -26 7 -61 20 -78 30 -17 10 -48 23 -70 30 -21 7
-59 24 -83 37 -24 12 -53 23 -65 23 -12 0 -52 16 -90 35 -39 19 -77 35 -86 35
-9 0 -28 9 -41 20 -12 12 -39 31 -59 43 -19 12 -42 27 -50 34 -54 43 -112 83
-120 83 -7 0 -10 -373 -10 -1080 l0 -1080 2545 0 c1443 0 2545 4 2545 9 0 5
-17 23 -37 40 -47 40 -62 67 -63 109 0 34 -8 57 -57 162 -14 30 -27 71 -28 90
-1 19 -6 91 -10 160 -6 98 -13 137 -31 179 -26 57 -53 214 -52 296 1 124 -11
367 -23 435 -7 47 -12 187 -13 374 -1 230 -4 300 -13 303 -16 6 -17 83 -2 83
8 0 10 40 5 143 -14 327 -14 343 -6 297 6 -36 7 -24 8 58 0 82 3 107 17 122
12 13 18 44 22 112 7 114 -4 152 -58 210 -21 23 -39 47 -39 53 0 6 -7 34 -15
61 -14 50 -22 61 -96 147 -20 23 -51 68 -67 99 -17 31 -47 72 -66 90 -25 25
-41 54 -60 116 -37 119 -59 143 -153 172 -43 13 -83 27 -89 32 -19 14 -156 68
-173 68 -9 0 -31 13 -49 30 -18 16 -58 37 -90 47 -31 9 -65 24 -74 33 -36 33
-47 39 -75 46 -51 13 -232 180 -258 240 -8 17 -29 44 -47 61 -37 34 -61 70
-54 82 3 5 -4 17 -15 27 -27 24 -74 120 -83 168 -7 38 -13 47 -51 89 -18 20
-20 37 -21 187 0 91 -5 184 -11 206 -6 23 -11 151 -12 285 -1 205 2 275 23
441 24 188 32 224 62 258 16 19 44 98 44 126 0 12 7 27 15 34 8 7 15 18 15 25
0 7 7 18 14 25 8 6 22 34 31 61 9 27 35 73 58 102 l42 52 6 290 c5 273 8 310
29 360 32 77 43 120 51 190 5 44 10 92 13 108 5 33 43 112 62 132 8 7 18 44
23 80 6 42 17 75 29 89 11 11 27 47 36 78 18 63 75 139 119 158 24 11 31 9 67
-16 22 -16 54 -39 72 -52 18 -13 68 -57 110 -97 43 -41 89 -82 104 -92 43 -28
224 -209 224 -224 0 -8 -16 -25 -35 -38 -66 -45 -150 -124 -163 -154 -15 -37
1 -93 33 -110 11 -6 59 -10 108 -9 76 0 88 -2 97 -19 18 -33 1 -112 -31 -147
-40 -43 -50 -74 -51 -164 0 -100 14 -124 79 -134 30 -4 59 -2 82 7 21 7 71 12
116 12 83 -2 103 5 152 51 34 31 31 98 -7 172 -32 64 -38 122 -17 164 18 35
39 35 59 1 9 -16 29 -38 45 -48 15 -10 37 -26 47 -35 11 -10 30 -18 42 -18 29
0 144 111 144 139 0 12 4 21 9 21 5 0 12 21 16 46 10 67 24 94 50 94 37 0 47
-22 30 -63 -8 -20 -15 -63 -15 -95 0 -46 5 -65 25 -93 30 -40 53 -48 115 -41
74 8 170 92 170 149 0 7 5 13 11 13 5 0 7 4 4 10 -3 6 1 7 9 4 14 -5 20 -34
19 -81 -1 -7 3 -10 8 -7 15 9 10 -14 -11 -53 -11 -21 -20 -43 -20 -49 0 -6
-38 -56 -85 -110 -46 -54 -87 -110 -90 -123 -9 -35 43 -138 74 -146 45 -11
114 6 147 37 29 27 39 30 137 37 155 11 170 26 154 146 -5 33 -11 107 -14 165
-4 87 -1 115 17 171 18 59 25 69 68 96 26 17 72 41 102 53 109 43 136 58 186
103 28 25 80 61 115 79 35 18 84 47 109 64 25 17 62 37 82 43 20 7 53 23 73
37 55 37 112 64 136 64 12 0 42 15 68 34 25 18 74 44 109 56 35 13 80 35 100
49 20 15 57 33 82 40 82 24 105 34 128 55 28 25 145 34 178 14 133 -83 202
-147 204 -188 0 -9 4 -20 9 -25 5 -6 17 -48 27 -95 15 -72 17 -141 18 -441 l1
-356 30 -39 c16 -21 57 -68 90 -102 33 -35 74 -91 91 -123 18 -33 37 -66 43
-73 6 -8 16 -53 22 -102 11 -88 26 -132 51 -150 7 -5 40 -18 73 -28 33 -9 76
-22 95 -28 19 -6 47 -20 62 -32 15 -12 48 -34 75 -51 46 -28 112 -88 303 -275
129 -127 267 -250 279 -250 6 0 11 -6 11 -14 0 -8 10 -23 23 -33 12 -10 40
-41 61 -68 22 -28 47 -57 55 -66 18 -18 164 -178 199 -218 13 -14 43 -48 68
-76 97 -110 127 -146 143 -175 20 -37 59 -89 174 -227 49 -58 96 -118 104
-132 45 -73 95 -146 164 -236 70 -93 109 -159 109 -183 0 -6 18 -30 40 -54 21
-23 44 -56 51 -73 6 -16 19 -46 30 -65 10 -19 34 -66 54 -104 19 -38 41 -77
49 -85 7 -9 20 -34 27 -56 8 -22 33 -72 56 -111 24 -39 43 -76 43 -81 0 -18
41 -103 49 -103 5 0 11 -8 14 -17 18 -59 49 -126 80 -176 20 -31 40 -69 43
-84 4 -16 28 -68 53 -118 25 -49 54 -110 64 -135 10 -25 28 -55 39 -67 18 -19
28 -47 45 -123 3 -14 17 -41 32 -60 14 -19 31 -55 37 -80 9 -34 12 509 13
2206 l1 2251 -37 7 c-28 4 -47 17 -73 47 -19 22 -48 55 -63 72 -16 18 -33 42
-38 55 -10 26 -66 32 -75 7 -7 -16 -34 -21 -34 -5 0 5 -10 15 -22 21 -19 10
-25 8 -49 -21 -33 -39 -54 -35 -113 21 -22 22 -45 39 -52 39 -19 0 -37 -56
-30 -95 7 -35 7 -35 -28 -35 -56 0 -61 23 -24 119 6 17 4 30 -8 48 -18 29 -8
43 33 43 30 0 39 38 23 95 -11 41 -22 50 -51 47 -4 -1 -5 8 -2 18 6 24 38 26
51 4 7 -12 29 -16 103 -17 94 -2 94 -2 97 -28 5 -40 -35 -79 -99 -98 -41 -13
-54 -21 -54 -36 0 -17 8 -21 48 -23 46 -3 47 -2 53 27 6 26 9 29 25 20 11 -5
17 -14 14 -18 -5 -10 28 -21 61 -21 20 0 21 2 8 50 -7 28 -11 57 -7 66 3 8 0
28 -7 45 -15 36 -3 54 29 44 36 -11 54 -60 48 -133 -4 -58 -3 -64 17 -71 86
-32 106 -18 106 71 0 50 4 65 25 90 22 26 31 57 26 95 -2 14 47 53 67 53 8 0
-3 14 -24 31 -22 17 -43 37 -47 45 -12 20 -35 17 -42 -6 -3 -11 -10 -20 -15
-20 -5 0 -23 -14 -40 -32 -61 -61 -172 -46 -154 21 3 14 7 69 8 121 1 88 0 95
-19 95 -11 0 -25 -11 -31 -23 -16 -32 -34 -50 -34 -34 0 7 -6 12 -13 12 -20 0
-48 35 -42 52 3 8 19 22 35 32 17 9 30 22 30 27 0 21 32 41 73 46 56 6 57 10
7 23 l-43 11 7 46 c5 36 2 51 -11 65 -22 25 -52 23 -62 -4 -5 -13 -15 -38 -22
-57 l-13 -35 -13 30 c-17 40 -16 74 2 94 14 15 13 19 -5 40 -11 13 -20 29 -20
37 0 7 -8 16 -17 20 -10 3 -38 26 -62 51 -44 43 -44 45 -30 70 21 39 45 39 58
1 6 -18 20 -38 31 -46 12 -9 20 -25 20 -44 0 -16 4 -29 10 -29 23 0 59 24 64
43 4 18 10 19 63 13 32 -4 61 -13 65 -20 6 -11 18 -12 55 -4 27 6 52 14 57 19
16 15 40 10 53 -10 10 -16 8 -20 -13 -30 -24 -11 -34 -41 -13 -41 17 0 79 66
79 85 0 8 10 19 23 24 29 11 81 86 74 105 -4 9 -19 18 -34 22 -52 11 -93 37
-93 60 0 28 9 35 32 23 13 -7 17 -16 13 -30 -6 -17 -4 -18 17 -9 18 9 68 76
68 93 0 2 -22 14 -50 27 -33 16 -50 30 -50 42 0 10 5 18 10 18 6 0 10 7 10 16
0 9 17 22 40 31 l40 16 0 94 0 93 -47 0 c-47 0 -49 1 -76 50 -16 28 -44 61
-63 73 -19 12 -37 32 -40 45 -4 12 -20 30 -37 38 -16 9 -42 29 -56 44 -14 16
-46 34 -71 40 -61 17 -90 31 -90 45 0 7 -7 18 -15 25 -23 19 -18 38 15 55 36
19 39 46 7 77 -24 23 -53 121 -41 139 3 5 12 9 20 9 9 0 14 -11 14 -36 0 -25
7 -43 22 -55 25 -23 26 -23 62 -4 50 27 74 -18 39 -72 -17 -25 -16 -26 12 -49
17 -13 44 -24 60 -24 47 -1 128 -25 136 -41 4 -8 10 -22 13 -31 7 -22 46 -24
46 -3 0 19 29 19 54 0 11 -8 23 -15 28 -15 12 0 10 328 -2 332 -6 2 -14 23
-18 47 -4 28 -14 48 -27 55 -10 6 -25 17 -33 24 -7 6 -24 12 -36 12 -13 0 -31
8 -40 19 -15 16 -15 19 -1 24 22 9 19 76 -5 107 -22 27 -25 25 -56 -26 -9 -16
-15 -17 -37 -7 -31 14 -36 48 -12 79 8 10 15 28 15 40 0 11 11 41 25 65 13 24
29 54 35 67 5 12 14 22 20 22 9 0 66 -28 99 -48 2 -1 0 -12 -6 -25 -20 -41
-22 -56 -9 -64 8 -5 15 -17 18 -28 2 -11 12 -21 22 -23 17 -4 18 1 12 52 -5
35 -4 56 2 56 6 0 8 9 5 21 -4 15 0 22 16 26 21 5 21 8 21 264 l0 259 -5400 0
-5400 0 0 -1875z m10459 1201 c14 -58 14 -109 -1 -124 -16 -16 -45 -15 -55 2
-4 8 -30 23 -58 33 -36 13 -51 24 -53 40 -3 18 3 23 35 29 51 9 70 20 78 44
12 37 42 24 54 -24z m-333 -123 c-10 -10 -19 5 -10 18 6 11 8 11 12 0 2 -7 1
-15 -2 -18z m-8895 7 c10 -6 56 -13 101 -16 87 -6 126 -16 168 -45 14 -9 41
-20 61 -23 20 -4 46 -17 59 -31 13 -14 28 -25 34 -25 14 0 116 -69 157 -106
104 -94 158 -164 174 -226 8 -29 23 -87 35 -128 26 -88 24 -193 -5 -236 -9
-14 -23 -62 -31 -107 -8 -44 -22 -94 -33 -111 -10 -17 -24 -47 -30 -67 -6 -20
-23 -47 -36 -59 -14 -13 -25 -27 -25 -32 0 -10 -121 -131 -174 -173 -21 -16
-50 -34 -64 -39 -15 -4 -44 -21 -64 -37 -22 -18 -49 -29 -68 -29 -17 0 -58
-11 -91 -26 -111 -46 -436 -49 -485 -3 -11 10 -34 19 -50 19 -29 0 -59 16 -98
52 -11 10 -27 18 -36 18 -9 0 -34 13 -56 30 -21 16 -45 30 -52 30 -39 1 -270
235 -288 293 -4 12 -10 24 -13 27 -4 3 -15 21 -24 42 -27 58 -19 176 18 263 7
17 18 64 24 105 6 41 22 97 36 124 14 27 25 57 25 65 0 25 130 202 185 252 48
43 61 53 145 109 21 14 48 33 61 42 54 38 389 75 440 48z m8813 -69 c19 -21
67 -22 120 -1 43 16 58 -4 60 -77 1 -56 0 -58 -26 -61 -20 -2 -36 6 -62 32
-19 20 -43 36 -53 36 -10 0 -23 10 -28 23 -6 12 -20 23 -32 25 -15 2 -23 10
-23 23 0 24 22 24 44 0z m484 -31 c2 -24 8 -50 14 -57 15 -18 58 -17 58 2 0
11 12 15 50 15 45 0 50 -2 50 -22 0 -12 -11 -33 -24 -47 -17 -18 -25 -40 -28
-71 -3 -40 0 -45 18 -48 29 -4 50 -30 57 -68 5 -25 1 -36 -18 -54 -20 -19 -32
-22 -70 -18 -56 7 -58 9 -57 50 0 21 9 38 23 49 l22 17 -21 11 c-12 6 -22 18
-22 26 0 8 -11 22 -25 31 -14 9 -32 32 -40 51 -14 32 -16 34 -51 27 -33 -6
-39 -3 -80 37 -49 48 -52 58 -26 82 16 15 20 15 49 -3 l31 -18 28 29 c39 41
58 35 62 -21z m-580 -36 c22 -15 30 -48 13 -58 -16 -10 -41 5 -41 24 0 11 -4
22 -10 25 -14 9 -12 25 3 25 7 0 23 -7 35 -16z m-104 -105 c9 -45 7 -61 -5
-57 -13 4 -22 88 -9 88 4 0 10 -14 14 -31z m181 -69 c0 -39 -15 -47 -58 -31
-50 19 -19 74 38 68 16 -2 20 -9 20 -37z m-1170 19 c22 -6 75 -17 117 -24 51
-9 85 -21 100 -35 12 -11 34 -23 48 -26 45 -10 78 -25 96 -45 9 -10 27 -19 40
-19 12 0 36 -11 52 -25 16 -14 60 -38 96 -55 48 -21 85 -48 129 -94 34 -35 80
-73 103 -84 31 -16 43 -29 52 -59 6 -21 25 -52 42 -68 19 -18 30 -39 30 -56 0
-34 19 -48 35 -26 17 24 40 21 59 -7 8 -14 25 -27 36 -31 22 -7 25 -30 9 -72
-10 -27 -11 -27 -22 -8 -6 11 -17 36 -24 55 -6 19 -12 27 -13 18 0 -10 -4 -18
-9 -18 -14 0 -22 -49 -11 -70 5 -10 18 -21 29 -25 16 -5 19 -19 23 -111 4 -89
8 -109 28 -136 24 -33 24 -19 4 -256 -4 -40 -11 -75 -15 -78 -5 -3 -9 -37 -9
-75 0 -66 1 -70 28 -80 15 -7 36 -15 47 -20 81 -33 118 -23 147 42 25 53 25
53 48 39 14 -9 18 -87 11 -244 -2 -47 8 -55 65 -48 42 4 45 3 55 -27 15 -42
42 -40 69 4 12 20 27 34 34 32 15 -5 30 -79 22 -110 -5 -23 -10 -25 -46 -20
-38 5 -70 -7 -70 -28 0 -5 14 -16 31 -24 33 -17 35 -41 7 -59 -15 -9 -23 -6
-43 17 -15 16 -36 27 -52 27 -14 0 -42 8 -62 19 -20 10 -57 28 -83 40 -54 25
-59 37 -24 51 33 12 53 49 35 61 -8 5 -21 9 -30 9 -9 0 -24 9 -34 20 -18 20
-18 21 4 51 13 17 19 34 15 38 -5 4 -35 14 -66 21 -50 11 -60 11 -81 -3 -14
-9 -33 -14 -44 -11 -27 7 -42 -15 -49 -72 -9 -83 -13 -94 -33 -94 -31 0 -56
-76 -42 -126 12 -44 0 -60 -51 -71 -27 -5 -123 -98 -168 -162 -13 -19 -29 -55
-36 -80 -10 -40 -16 -47 -47 -56 -19 -5 -46 -21 -60 -35 -45 -46 -208 -150
-235 -150 -11 0 -35 -11 -54 -23 -19 -13 -52 -27 -75 -30 -22 -4 -60 -18 -85
-32 -43 -24 -56 -25 -294 -35 -328 -14 -492 -4 -564 33 -29 15 -57 27 -64 27
-6 0 -27 13 -46 28 -34 29 -34 30 -38 125 -4 89 9 205 40 369 10 52 8 60 -16
112 -25 53 -26 58 -11 85 20 40 19 63 -4 83 -11 10 -23 37 -27 63 -6 41 -16
57 -78 119 -39 40 -87 81 -106 91 -19 11 -47 30 -62 42 -15 11 -51 29 -80 38
-85 28 -140 60 -182 105 l-38 42 22 30 c17 23 26 56 35 133 10 78 19 111 38
141 14 21 29 61 33 87 3 27 13 51 20 54 8 3 25 26 37 52 50 99 72 137 104 175
18 22 33 43 33 47 0 35 236 290 282 305 19 6 67 38 141 95 15 11 55 27 88 35
34 8 74 23 89 34 21 15 44 20 93 20 36 0 78 5 94 11 62 24 319 36 388 18z
m1285 -75 c0 -48 -3 -65 -12 -61 -7 2 -13 9 -12 15 1 7 2 37 3 68 2 78 21 59
21 -22z m70 -114 c0 -5 -7 -10 -15 -10 -8 0 -15 5 -15 10 0 6 7 10 15 10 8 0
15 -4 15 -10z m-380 -175 c-13 -16 -40 -20 -40 -7 0 14 12 22 33 22 16 0 17
-3 7 -15z m622 -110 c2 -22 -2 -31 -15 -33 -23 -5 -32 23 -18 55 14 30 28 21
33 -22z m-111 -45 c8 -35 -10 -80 -30 -80 -17 0 -29 98 -14 114 16 15 38 -1
44 -34z m236 -11 c6 -6 8 -30 5 -54 -4 -42 -3 -45 32 -66 35 -20 36 -22 20
-40 -19 -21 -49 -24 -88 -9 -22 8 -26 16 -26 47 0 26 -8 45 -26 64 -41 43 -26
59 57 68 8 0 20 -4 26 -10z m113 -83 c0 -16 -18 -31 -27 -22 -8 8 5 36 17 36
5 0 10 -6 10 -14z m-360 -112 c0 -8 -7 -14 -15 -14 -15 0 -21 21 -9 33 10 9
24 -2 24 -19z m310 -49 c8 -9 10 -27 6 -47 -6 -26 -16 -38 -51 -55 -35 -17
-46 -19 -55 -9 -13 17 -3 44 19 51 9 3 23 21 30 40 13 37 31 44 51 20z m-317
-139 c-6 -38 -17 -46 -27 -20 -9 24 -7 53 5 77 l12 21 8 -21 c4 -12 5 -38 2
-57z m-3 -203 c0 -35 -3 -44 -10 -33 -13 20 -13 80 0 80 6 0 10 -21 10 -47z
m188 -61 c2 -13 -2 -22 -10 -22 -7 0 -14 11 -14 25 -2 31 20 28 24 -3z m-538
-652 c0 -5 -4 -10 -10 -10 -5 0 -10 5 -10 10 0 6 5 10 10 10 6 0 10 -4 10 -10z
m-127 -67 c-3 -7 -11 -13 -19 -13 -17 0 -19 37 -1 43 15 5 27 -12 20 -30z
m191 -72 c7 -47 0 -71 -23 -71 -24 0 -41 20 -41 46 0 13 -4 26 -10 29 -18 11
-11 35 13 44 33 13 54 -3 61 -48z m-194 -31 c0 -5 -4 -10 -10 -10 -5 0 -10 5
-10 10 0 6 5 10 10 10 6 0 10 -4 10 -10z m111 -116 c6 -7 9 -27 7 -45 -2 -28
-9 -36 -39 -47 -33 -12 -41 -12 -74 4 -32 15 -75 64 -75 86 0 17 166 19 181 2z
m-9345 -226 c51 -31 67 -48 44 -48 -5 0 -10 -11 -10 -24 0 -26 -24 -51 -40
-41 -5 3 -10 14 -10 24 0 10 -7 24 -15 31 -13 10 -21 6 -49 -25 -30 -32 -38
-36 -65 -30 -17 4 -31 12 -31 18 0 30 23 89 36 94 8 3 14 11 14 19 0 26 68 16
126 -18z m437 -8 c3 -11 1 -23 -4 -26 -5 -3 -9 6 -9 20 0 31 6 34 13 6z m-86
-105 c20 -12 33 -28 33 -40 -1 -22 -65 -69 -81 -59 -18 10 -8 131 10 122 3 -2
21 -12 38 -23z m-327 -170 c11 -21 10 -28 -4 -50 -9 -14 -21 -23 -26 -20 -18
11 -9 95 9 95 4 0 14 -11 21 -25z m-412 -31 c31 -21 29 -68 -3 -100 -21 -21
-29 -23 -40 -14 -18 15 -20 101 -3 118 15 15 19 15 46 -4z m668 -65 c1 -24 4
-55 6 -69 3 -22 -1 -25 -27 -25 l-30 0 3 64 c2 62 13 85 37 78 5 -2 10 -23 11
-48z m138 -34 c-4 -8 -8 -15 -10 -15 -2 0 -4 7 -4 15 0 8 4 15 10 15 5 0 7 -7
4 -15z m-266 -53 c-2 -9 -10 -18 -19 -20 -19 -3 -31 21 -23 43 8 21 46 0 42
-23z m242 19 c0 -11 -31 -24 -39 -16 -3 3 1 10 9 15 19 12 30 12 30 1z m-300
-66 c0 -8 -7 -15 -15 -15 -8 0 -15 7 -15 15 0 8 7 15 15 15 8 0 15 -7 15 -15z
m184 -50 c3 -9 3 -36 -1 -61 -6 -47 -28 -68 -44 -43 -10 16 -12 103 -2 112 12
13 41 7 47 -8z m216 -4 c16 -31 12 -75 -10 -93 -11 -10 -22 -30 -26 -45 -11
-54 -17 -59 -24 -24 -5 19 -22 48 -40 64 l-32 30 26 24 c14 13 26 30 26 38 0
29 65 34 80 6z m-452 -133 c-7 -19 -38 -22 -38 -4 0 10 9 16 21 16 12 0 19 -5
17 -12z m92 -34 c25 -9 51 -20 58 -26 9 -8 16 -6 27 8 8 10 15 22 15 27 0 16
19 6 25 -14 5 -15 0 -29 -18 -47 -33 -36 -43 -94 -21 -127 13 -20 14 -28 4
-40 -24 -29 -66 -11 -69 30 0 6 -20 12 -45 15 -46 6 -76 24 -76 45 0 7 -10 20
-22 28 l-23 16 25 20 c14 11 26 23 26 28 10 56 23 62 94 37z m345 -63 c35 -17
36 -39 2 -25 -17 6 -22 -6 -32 -78 -3 -26 -10 -50 -15 -53 -4 -3 -17 28 -27
67 l-20 72 21 18 c26 22 25 22 71 -1z m-947 -24 c3 -12 -4 -20 -18 -24 -16 -4
-20 -12 -18 -31 2 -20 15 -33 51 -52 35 -18 50 -33 56 -55 15 -55 -25 -61 -51
-8 -11 23 -21 29 -52 31 -43 4 -61 21 -70 65 -6 30 15 81 36 91 26 10 63 1 66
-17z m9379 -156 c17 -11 46 -41 64 -68 29 -41 34 -58 37 -118 3 -66 1 -73 -32
-124 -19 -30 -52 -68 -73 -85 -36 -30 -40 -31 -134 -30 l-97 1 -51 43 -51 43
0 82 c0 122 13 175 53 219 42 45 69 54 172 55 62 1 87 -3 112 -18z m-8752 -28
c3 -16 14 -36 22 -45 14 -16 14 -18 -1 -24 -24 -9 -38 -51 -26 -75 6 -10 22
-22 35 -25 35 -9 31 -24 -6 -24 -40 0 -94 26 -119 58 -32 40 -26 81 18 123 45
45 67 49 77 12z m-432 -3 c3 -11 19 -28 36 -37 20 -12 31 -26 31 -40 0 -13 5
-23 10 -23 17 0 11 -22 -11 -41 -32 -28 -86 -15 -131 32 -48 49 -49 74 -3 89
19 6 35 18 35 26 0 21 27 17 33 -6z m-188 -70 c7 -23 -2 -60 -16 -60 -5 0 -9
18 -9 40 0 42 14 54 25 20z m63 -138 c2 -33 0 -42 -12 -42 -12 0 -16 11 -16
46 0 59 24 55 28 -4z m-128 -22 c0 -11 -4 -20 -10 -20 -5 0 -10 9 -10 20 0 11
5 20 10 20 6 0 10 -9 10 -20z m490 -75 c0 -14 -4 -25 -9 -25 -12 0 -23 29 -15
41 10 18 24 9 24 -16z m-310 -14 c0 -6 -4 -13 -10 -16 -5 -3 -10 1 -10 9 0 9
5 16 10 16 6 0 10 -4 10 -9z m-174 -147 c7 -27 -7 -50 -25 -40 -12 8 -15 49
-4 59 13 13 23 7 29 -19z m222 10 c32 -15 40 -41 26 -78 -9 -23 -24 -20 -56
11 -25 24 -30 25 -53 13 -13 -7 -22 -17 -18 -23 3 -5 0 -7 -8 -5 -20 7 -13 48
13 75 25 27 53 29 96 7z m-118 -319 c0 -8 -13 -24 -28 -37 -16 -13 -34 -41
-40 -64 -7 -22 -21 -51 -31 -63 -18 -21 -20 -21 -29 -4 -5 10 -12 37 -16 61
-6 41 -4 45 35 82 40 38 70 50 97 42 6 -2 12 -10 12 -17z m1717 -256 c15 -6
78 -15 139 -19 93 -6 117 -11 145 -30 59 -41 140 -124 146 -150 3 -14 9 -29
13 -35 16 -22 18 -123 3 -181 -8 -32 -17 -75 -20 -94 -3 -19 -13 -44 -23 -55
-10 -11 -21 -32 -25 -46 -15 -60 -57 -120 -156 -222 -67 -69 -111 -107 -125
-107 -12 0 -38 -12 -59 -26 -21 -14 -56 -33 -79 -41 -22 -9 -43 -20 -46 -23
-16 -22 -59 -30 -152 -30 -98 0 -105 2 -148 30 -30 20 -57 30 -83 30 -34 0
-45 7 -88 53 -102 107 -96 96 -110 212 -10 88 1 178 28 230 9 17 24 47 35 67
10 20 26 43 36 50 11 7 25 24 32 38 7 14 22 35 34 46 12 12 37 45 56 74 19 29
43 60 52 69 10 9 30 28 44 43 15 15 43 33 63 39 20 7 46 20 59 29 12 10 48 21
80 25 31 4 71 13 87 20 17 7 31 14 32 14 1 1 14 -4 30 -10z"/>
<path d="M699 6574 c-11 -14 -10 -18 6 -30 28 -21 63 -18 70 7 12 37 -49 55
-76 23z"/>
<path d="M1836 5140 c-38 -16 -79 -38 -90 -49 -12 -10 -30 -22 -41 -25 -45
-14 -183 -163 -206 -222 -5 -14 -9 -47 -9 -74 0 -30 -6 -54 -15 -64 -28 -27
-11 -79 42 -127 45 -43 67 -49 163 -49 91 0 133 12 168 46 7 8 22 14 31 14 10
0 29 8 42 19 13 10 44 28 69 41 48 24 110 77 110 94 0 6 11 21 23 33 13 12 29
40 37 62 7 23 17 41 22 41 19 0 40 74 35 121 -8 69 -62 118 -162 147 -98 29
-136 27 -219 -8z"/>
<path d="M10747 9984 c5 -13 2 -15 -14 -10 -25 8 -38 -17 -22 -45 16 -30 62
-22 64 11 2 25 -14 60 -27 60 -4 0 -5 -7 -1 -16z"/>
<path d="M10600 9400 c0 -13 7 -20 20 -20 11 0 27 -11 36 -25 9 -14 20 -25 25
-25 17 0 9 35 -11 48 -11 7 -20 19 -20 27 0 9 -10 15 -25 15 -18 0 -25 -5 -25
-20z"/>
<path d="M10716 9285 c-3 -8 -3 -29 1 -46 5 -25 10 -30 31 -27 17 2 26 10 28
26 2 12 -1 22 -8 22 -6 0 -8 3 -5 7 9 8 -12 33 -28 33 -7 0 -15 -7 -19 -15z"/>
<path d="M10710 8444 c0 -5 12 -18 26 -31 l26 -22 -20 -42 c-18 -35 -19 -44
-7 -55 9 -9 16 -10 20 -4 3 5 15 10 26 10 16 0 19 7 19 54 0 47 -2 53 -17 50
-12 -3 -22 3 -28 18 -9 22 -45 39 -45 22z"/>
<path d="M10530 8190 c19 -13 30 -13 30 0 0 6 -10 10 -22 10 -19 0 -20 -2 -8
-10z"/>
<path d="M10573 8043 c-33 -6 -47 -28 -34 -52 8 -15 18 -18 38 -15 43 8 58 27
41 53 -7 11 -15 20 -18 20 -3 -1 -15 -4 -27 -6z"/>
<path d="M3894 7878 c-3 -4 -14 -8 -24 -8 -10 0 -26 -8 -36 -17 -14 -14 -16
-29 -10 -93 10 -97 10 -90 -10 -200 -30 -166 -14 -249 46 -233 13 3 20 0 20
-8 0 -10 3 -10 12 -1 7 7 20 12 29 12 9 0 25 12 34 27 38 58 43 483 6 517 -17
15 -59 18 -67 4z"/>
<path d="M7030 7831 c-25 -16 -54 -39 -66 -52 -12 -13 -49 -49 -82 -79 -34
-30 -62 -60 -62 -67 0 -7 -7 -16 -16 -21 -9 -5 -15 -12 -14 -16 0 -3 -13 -35
-30 -70 -16 -35 -30 -68 -30 -74 0 -6 -6 -12 -12 -14 -19 -7 -23 -168 -5 -190
8 -11 36 -21 68 -25 46 -7 54 -12 59 -33 3 -15 18 -31 37 -40 21 -9 33 -22 33
-35 0 -11 4 -26 9 -33 8 -14 57 -42 72 -42 12 0 49 37 49 49 0 5 7 12 16 15
26 10 7 47 -54 104 -37 36 -67 56 -89 59 -33 6 -33 6 -18 30 9 14 23 48 30 77
16 62 44 113 96 176 20 25 46 64 57 87 12 22 25 43 29 45 21 9 63 80 63 105 0
74 -62 94 -140 44z"/>
<path d="M10787 7703 c-10 -10 -8 -66 3 -83 7 -11 10 0 10 38 0 53 -1 57 -13
45z"/>
<path d="M101 6871 c-16 -12 -20 -21 -12 -25 6 -4 11 -18 11 -31 0 -23 25 -45
50 -45 7 0 10 21 9 60 -3 67 -14 75 -58 41z"/>
<path d="M6355 6793 c-105 -25 -151 -77 -158 -180 -3 -34 -7 -65 -10 -70 -4
-6 -73 -16 -155 -22 l-148 -13 -49 -42 c-87 -73 -241 -241 -268 -292 -75 -144
-114 -427 -83 -593 9 -46 16 -85 16 -87 0 -2 20 -24 45 -48 25 -25 45 -49 45
-53 0 -23 82 -57 225 -93 173 -45 225 -47 315 -16 25 8 64 20 86 26 26 6 58
26 83 50 23 22 66 51 96 65 31 13 58 31 61 39 3 9 28 31 55 51 27 19 49 41 49
49 0 8 21 37 46 65 25 27 57 72 70 98 14 26 36 59 49 73 12 14 28 42 35 63 6
21 22 50 34 65 32 38 52 80 60 127 7 43 43 142 59 162 20 27 26 87 12 137 -17
63 -43 136 -53 150 -5 6 -17 34 -27 61 -21 60 -155 197 -207 213 -36 11 -251
22 -283 15z m173 -259 c17 -3 53 -27 81 -54 58 -55 65 -79 59 -202 -3 -75 -7
-88 -40 -139 -19 -31 -39 -69 -42 -86 -4 -17 -27 -61 -52 -98 -24 -37 -44 -71
-44 -74 0 -3 -14 -22 -31 -41 -16 -19 -44 -58 -61 -86 -17 -28 -46 -61 -64
-73 -18 -13 -45 -34 -59 -47 -15 -14 -57 -39 -93 -57 -37 -18 -78 -40 -92 -49
-14 -9 -61 -21 -105 -28 -73 -10 -86 -9 -147 10 -64 19 -70 24 -105 78 -34 52
-38 64 -41 141 -3 61 0 93 12 120 8 20 20 65 26 100 7 40 22 81 39 105 15 23
40 59 54 81 65 98 213 225 262 225 24 0 91 69 115 119 21 46 25 49 54 45 17
-3 56 -1 86 4 67 12 147 14 188 6z"/>
<path d="M6178 6192 c-21 -9 -58 -41 -83 -70 -36 -44 -45 -61 -45 -92 0 -74
63 -73 145 2 56 51 80 100 73 148 -4 32 -39 36 -90 12z"/>
<path d="M169 6768 c-2 -24 3 -43 14 -50 20 -13 27 -9 27 15 0 34 -38 66 -41
35z"/>
<path d="M356 6761 c-4 -5 -9 -31 -13 -57 l-6 -47 38 6 c51 8 63 21 42 45 -9
10 -17 26 -17 34 0 9 -7 19 -16 22 -20 8 -22 8 -28 -3z"/>
<path d="M4490 6704 c-122 -9 -194 -25 -227 -50 -18 -14 -58 -34 -88 -44 -31
-11 -70 -34 -88 -52 -49 -50 -128 -116 -168 -141 -36 -22 -148 -140 -178 -187
-8 -14 -32 -45 -52 -70 -41 -50 -63 -90 -73 -134 -4 -16 -18 -43 -31 -58 -27
-32 -53 -107 -62 -180 -3 -26 -9 -45 -13 -43 -8 5 -18 -19 -41 -93 -11 -37
-10 -53 6 -115 10 -40 25 -83 32 -97 7 -14 13 -35 13 -47 0 -51 96 -177 155
-204 22 -10 51 -28 65 -39 21 -16 50 -21 170 -30 189 -13 314 5 355 50 10 11
51 38 92 60 41 23 76 47 79 55 3 7 18 18 32 24 24 10 152 140 288 291 23 25
49 66 59 93 10 26 28 58 41 72 13 14 37 52 52 83 16 31 43 79 60 106 18 28 32
61 32 75 0 28 29 81 63 119 18 19 22 38 25 122 5 107 -7 154 -52 215 -12 17
-28 43 -36 59 -13 26 -46 51 -164 128 -38 24 -51 27 -166 31 -69 2 -150 3
-180 1z m261 -292 c60 -29 74 -62 74 -167 0 -64 -4 -87 -21 -115 -12 -19 -29
-57 -39 -85 -10 -27 -24 -57 -32 -66 -7 -8 -13 -20 -13 -26 0 -6 -7 -16 -15
-23 -8 -7 -28 -40 -44 -75 -17 -34 -46 -80 -65 -101 -20 -22 -36 -42 -36 -46
0 -4 -29 -38 -65 -75 -36 -38 -65 -71 -65 -75 0 -5 -6 -8 -13 -8 -8 0 -20 -11
-27 -25 -7 -14 -18 -25 -23 -25 -6 0 -35 -21 -66 -46 -64 -53 -76 -59 -174
-79 -136 -28 -230 -11 -313 57 -84 69 -89 80 -89 188 0 91 2 98 33 146 17 28
32 58 32 67 0 27 31 99 58 136 14 19 35 53 46 77 37 76 155 204 241 260 16 10
57 29 92 41 35 12 70 29 79 37 8 9 21 16 29 16 7 0 15 5 17 11 5 16 97 26 233
25 104 -1 126 -4 166 -24z"/>
<path d="M4255 6034 c-42 -15 -96 -67 -122 -118 -23 -44 -4 -100 39 -115 45
-16 89 -13 120 7 34 23 102 127 111 170 6 30 4 33 -33 52 -46 23 -61 24 -115
4z"/>
<path d="M7565 5960 c-68 -8 -85 -12 -170 -45 -33 -12 -109 -30 -170 -39 -213
-33 -232 -39 -317 -96 -31 -21 -39 -34 -48 -76 -6 -28 -8 -57 -5 -65 3 -8 29
-25 58 -38 42 -20 67 -24 127 -23 98 1 228 19 315 44 154 43 186 48 365 54
195 7 229 15 251 57 7 12 15 24 18 27 29 24 39 83 18 105 -7 7 -25 26 -38 43
-14 16 -41 34 -60 40 -44 13 -266 21 -344 12z"/>
<path d="M6910 5173 c-29 -11 -50 -37 -50 -62 0 -46 57 -110 118 -133 17 -7
32 -15 32 -19 0 -4 10 -9 23 -13 13 -3 34 -15 47 -26 13 -11 29 -20 36 -20 8
0 28 -9 46 -20 18 -11 45 -20 59 -20 14 0 45 -13 67 -30 23 -16 47 -30 52 -30
15 0 168 -58 204 -77 16 -9 57 -16 93 -17 65 -1 65 -1 79 33 21 49 17 63 -22
96 -20 17 -41 35 -48 41 -12 12 -189 98 -260 128 -21 9 -56 16 -76 16 -27 0
-48 8 -69 25 -16 14 -62 37 -101 50 -39 13 -95 38 -124 55 -52 29 -75 34 -106
23z"/>
<path d="M9050 5037 c-55 -27 -112 -85 -141 -144 -61 -127 38 -351 205 -461
43 -28 58 -32 115 -32 84 0 150 36 214 115 124 152 95 292 -101 487 l-57 58
-95 -1 c-76 0 -104 -4 -140 -22z"/>
<path d="M9810 3759 c-61 -13 -145 -56 -187 -95 -18 -18 -40 -35 -47 -37 -8
-3 -29 -27 -48 -54 -33 -47 -33 -50 -33 -158 0 -103 2 -115 35 -190 18 -44 42
-89 52 -100 9 -11 24 -36 32 -55 8 -19 32 -64 54 -100 23 -36 53 -89 67 -117
15 -29 31 -53 36 -53 5 0 9 -5 9 -12 0 -6 21 -45 46 -87 149 -243 224 -321
351 -367 102 -37 209 -29 276 19 16 12 50 49 75 82 60 79 76 158 69 335 -5
119 -7 129 -47 221 -23 53 -50 106 -61 118 -10 11 -19 23 -19 26 0 13 -124
211 -175 280 -29 39 -58 81 -65 94 -22 42 -100 140 -128 160 -15 11 -34 27
-43 36 -24 23 -138 65 -173 64 -17 -1 -51 -5 -76 -10z"/>
<path d="M682 3000 c-18 -4 -38 -14 -45 -23 -7 -8 -29 -20 -50 -27 -57 -18
-168 -87 -233 -145 -18 -16 -60 -50 -93 -75 -32 -25 -69 -60 -81 -77 -12 -18
-33 -45 -47 -60 -21 -24 -24 -36 -20 -86 3 -56 6 -61 54 -105 29 -26 75 -63
103 -82 28 -19 66 -47 85 -61 20 -15 54 -29 80 -32 27 -4 61 -18 81 -33 30
-24 46 -27 131 -32 87 -4 103 -8 154 -38 32 -19 61 -34 66 -34 4 0 21 -7 38
-16 16 -8 60 -22 97 -29 36 -8 82 -24 100 -35 18 -11 47 -20 64 -20 17 0 53
-11 80 -25 43 -23 72 -28 233 -40 117 -9 203 -21 235 -32 46 -16 99 -18 576
-18 520 0 525 0 575 22 28 12 83 27 122 32 46 6 82 17 98 29 15 12 49 23 85
27 33 4 63 12 68 19 10 18 87 46 126 46 18 0 53 11 78 24 24 13 68 29 97 35
28 6 64 20 80 32 15 11 48 25 72 30 24 6 46 14 49 19 3 5 25 20 49 33 24 14
74 52 112 84 60 52 68 62 68 95 1 33 -7 44 -70 106 -39 39 -83 72 -98 75 -14
3 -37 15 -50 26 -13 11 -47 27 -77 36 -29 8 -57 22 -61 30 -5 8 -34 20 -66 25
-31 6 -82 22 -112 35 -86 38 -125 30 -125 -25 0 -14 -7 -38 -15 -53 -8 -16
-20 -68 -26 -115 -12 -95 -64 -277 -87 -304 -10 -12 -30 -18 -61 -18 -25 0
-57 -6 -71 -13 -22 -11 -25 -19 -27 -75 -3 -109 -30 -118 -109 -36 -53 55 -55
56 -79 40 -13 -9 -36 -16 -50 -16 -14 0 -42 -7 -63 -16 -29 -12 -57 -14 -132
-9 -85 6 -101 4 -155 -16 -50 -20 -79 -23 -180 -24 -66 0 -136 -6 -155 -12
-63 -20 -176 -24 -238 -8 -32 8 -107 15 -167 16 -101 2 -111 4 -134 27 -19 19
-40 26 -95 33 -39 4 -80 5 -92 3 -13 -4 -32 4 -50 19 -16 13 -53 30 -83 36
-29 6 -64 20 -77 30 -13 10 -40 22 -61 26 -20 3 -61 20 -91 36 -30 16 -61 29
-68 29 -7 0 -28 15 -47 33 -18 17 -65 60 -105 94 -65 58 -72 67 -82 119 -14
65 -3 168 30 285 22 82 26 159 8 177 -13 13 -18 13 -66 2z"/>
<path d="M10338 1804 c-79 -17 -103 -29 -145 -73 -79 -82 -95 -112 -117 -208
-18 -80 -21 -194 -7 -221 6 -9 17 -55 26 -102 9 -46 19 -87 23 -90 12 -9 40
-73 52 -115 11 -44 62 -148 102 -210 43 -68 100 -120 163 -151 53 -26 70 -29
146 -27 89 1 179 29 206 63 9 11 12 133 13 495 l0 481 -42 41 c-24 22 -56 47
-73 55 -16 9 -52 27 -78 42 -39 21 -63 26 -132 28 -47 2 -108 -2 -137 -8z"/>
<path d="M7645 1704 c-111 -46 -179 -152 -190 -293 -8 -105 47 -213 136 -266
60 -36 80 -43 129 -47 82 -7 164 18 214 67 88 86 117 174 97 295 -16 101 -98
212 -186 254 -49 24 -130 19 -200 -10z"/>
<path d="M5935 1634 c-49 -12 -82 -31 -127 -74 -38 -35 -52 -57 -63 -100 -17
-63 -19 -207 -5 -327 8 -73 14 -88 53 -145 65 -92 119 -128 206 -135 86 -7
144 12 212 69 63 53 84 107 83 218 0 122 -21 253 -46 286 -5 6 -15 35 -24 63
-8 28 -18 51 -22 51 -4 0 -23 15 -42 33 -19 19 -44 39 -55 44 -23 13 -141 24
-170 17z"/>
<path d="M8458 641 c-93 -30 -168 -98 -212 -195 -21 -45 -35 -206 -18 -206 5
0 13 -12 16 -26 9 -35 63 -117 85 -130 88 -49 118 -58 185 -56 45 1 82 8 110
22 56 27 122 97 140 151 18 52 21 167 5 239 -14 66 -77 145 -139 176 -52 26
-132 37 -172 25z"/>
<path d="M5803 530 c-58 -13 -118 -69 -157 -145 -30 -58 -38 -87 -46 -170 -10
-90 -8 -148 6 -197 5 -17 27 -18 284 -18 l278 0 7 41 c9 53 -2 190 -22 259
-33 118 -109 221 -174 234 -41 8 -135 6 -176 -4z"/>
<path d="M7214 356 c-118 -56 -175 -166 -166 -323 l2 -33 285 0 285 0 0 63 c0
121 -91 256 -200 298 -69 26 -143 24 -206 -5z"/>
<path d="M10290 337 c-64 -22 -135 -65 -160 -99 -36 -47 -87 -156 -93 -201
l-6 -37 385 0 c437 0 412 -6 352 86 -137 207 -321 303 -478 251z"/>
</g>
</svg>
